PathFileType	4	(X/Y/Z)	 2.8Hzlow3min.trc
DataRate	CameraRate	NumFrames	NumMarkers	Units	OrigDataRate	OrigDataStartFrame	OrigNumFrames
200	200	11	35	m	200	501	1000
Frame#	Time	C7			LSH			RSH			MAN			RASI			LASI			HIPR			HIPL			RPSI			LPSI			COX			RTHI1			RTHI2			RTHI3			RTHI4			RSHA1			RSHA2			RSHA3			RSHA4			RHEEL			RMET5			RMET1			RTOE			LTHI1			LTHI2			LTHI3			LTHI4			LSHA1			LSHA2			LSHA3			LSHA4			LHEEL			LMET5			LMET1			LTOE			
		X1	Y1	Z1	X2	Y2	Z2	X3	Y3	Z3	X4	Y4	Z4	X5	Y5	Z5	X6	Y6	Z6	X7	Y7	Z7	X8	Y8	Z8	X9	Y9	Z9	X10	Y10	Z10	X11	Y11	Z11	X12	Y12	Z12	X13	Y13	Z13	X14	Y14	Z14	X15	Y15	Z15	X16	Y16	Z16	X17	Y17	Z17	X18	Y18	Z18	X19	Y19	Z19	X20	Y20	Z20	X21	Y21	Z21	X22	Y22	Z22	X23	Y23	Z23	X24	Y24	Z24	X25	Y25	Z25	X26	Y26	Z26	X27	Y27	Z27	X28	Y28	Z28	X29	Y29	Z29	X30	Y30	Z30	X31	Y31	Z31	X32	Y32	Z32	X33	Y33	Z33	X34	Y34	Z34	X35	Y35	Z35	
501	2.5050	-0.319637	1.421381	-0.567121	-0.276035	1.400508	-0.738171	-0.295657	1.404629	-0.398347	-0.204293	1.385563	-0.564378	-0.160426	0.992989	-0.484130	-0.152867	1.001309	-0.660369	-0.229492	1.037892	-0.441578	-0.217068	1.046512	-0.702851	-0.303267	1.024694	-0.517863	-0.298357	1.026683	-0.627509	-0.308318	1.036986	-0.575688	-0.253255	0.823606	-0.404384	-0.243260	0.764715	-0.396516	-0.179408	0.770469	-0.406261	-0.180760	0.831309	-0.414746	-0.285315	0.379821	-0.372118	-0.303016	0.340405	-0.371108	-0.247650	0.322436	-0.389018	-0.235327	0.360902	-0.392849	-0.384680	0.141327	-0.422194	-0.257021	0.044088	-0.369184	-0.226493	0.044256	-0.436507	-0.206061	0.032510	-0.428538	-0.229324	0.791118	-0.753661	-0.216002	0.730940	-0.754019	-0.154403	0.738293	-0.734523	-0.160123	0.797740	-0.732795	-0.307628	0.351037	-0.751747	-0.321682	0.313047	-0.748009	-0.260710	0.297403	-0.748980	-0.254404	0.340793	-0.753156	-0.373370	0.144045	-0.697471	-0.248397	0.041133	-0.746293	-0.215576	0.046388	-0.683329	-0.196744	0.036057	-0.691084	
502	2.5100	-0.319766	1.422090	-0.567374	-0.275940	1.401270	-0.738449	-0.295875	1.405126	-0.398532	-0.204540	1.386253	-0.564551	-0.160736	0.993752	-0.484247	-0.152796	1.001876	-0.660382	-0.229844	1.038765	-0.441766	-0.216885	1.047189	-0.703045	-0.303537	1.025759	-0.518191	-0.298420	1.027615	-0.627869	-0.308515	1.037955	-0.576044	-0.253685	0.824395	-0.404812	-0.243717	0.765518	-0.396978	-0.179822	0.771290	-0.406423	-0.181156	0.832141	-0.414805	-0.284963	0.380632	-0.372117	-0.302677	0.341287	-0.371016	-0.247414	0.323233	-0.389174	-0.235056	0.361691	-0.393026	-0.384657	0.141858	-0.422299	-0.256527	0.045673	-0.368500	-0.225692	0.045650	-0.435474	-0.205203	0.034000	-0.427339	-0.228872	0.791511	-0.753654	-0.215502	0.731345	-0.753925	-0.154015	0.738764	-0.734118	-0.159777	0.798211	-0.732444	-0.307460	0.351974	-0.752372	-0.321620	0.314023	-0.748700	-0.260693	0.298217	-0.749537	-0.254258	0.341602	-0.753671	-0.373560	0.144527	-0.698348	-0.247936	0.042650	-0.747744	-0.215073	0.047780	-0.684815	-0.196164	0.037574	-0.692614	
503	2.5150	-0.319887	1.422550	-0.567620	-0.275808	1.401722	-0.738763	-0.296066	1.405330	-0.398666	-0.204810	1.386676	-0.564700	-0.161102	0.994300	-0.484370	-0.152781	1.002230	-0.660416	-0.230256	1.039410	-0.441945	-0.216810	1.047611	-0.703236	-0.303879	1.026513	-0.518491	-0.298568	1.028245	-0.628202	-0.308777	1.038633	-0.576373	-0.254102	0.824893	-0.405246	-0.244118	0.766037	-0.397465	-0.180185	0.771879	-0.406639	-0.181553	0.832732	-0.414898	-0.284588	0.381282	-0.372176	-0.302374	0.342014	-0.370992	-0.247218	0.323821	-0.389368	-0.234781	0.362246	-0.393226	-0.384822	0.142209	-0.422416	-0.256149	0.047168	-0.367885	-0.225057	0.046998	-0.434594	-0.204485	0.035498	-0.426330	-0.228442	0.791589	-0.753618	-0.214967	0.731442	-0.753753	-0.153591	0.739002	-0.733679	-0.159451	0.798442	-0.732112	-0.307350	0.352807	-0.752926	-0.321635	0.314889	-0.749310	-0.260764	0.298895	-0.750107	-0.254181	0.342267	-0.754195	-0.373904	0.144923	-0.699221	-0.247669	0.043972	-0.749039	-0.214804	0.049026	-0.686134	-0.195811	0.038938	-0.693947	
504	2.5200	-0.320001	1.422776	-0.567859	-0.275638	1.401865	-0.739108	-0.296230	1.405250	-0.398750	-0.205099	1.386845	-0.564826	-0.161525	0.994638	-0.484494	-0.152828	1.002377	-0.660466	-0.230745	1.039827	-0.442115	-0.216851	1.047778	-0.703417	-0.304287	1.026954	-0.518763	-0.298795	1.028572	-0.628506	-0.309106	1.039011	-0.576688	-0.254506	0.825105	-0.405679	-0.244450	0.766273	-0.397986	-0.180494	0.772238	-0.406909	-0.181946	0.833092	-0.415038	-0.284211	0.381775	-0.372286	-0.302121	0.342594	-0.371031	-0.247068	0.324202	-0.389569	-0.234514	0.362578	-0.393427	-0.385148	0.142413	-0.422494	-0.255896	0.048497	-0.367419	-0.224629	0.048249	-0.433939	-0.203973	0.036919	-0.425578	-0.228037	0.791386	-0.753559	-0.214407	0.731264	-0.753515	-0.153134	0.739021	-0.733210	-0.159148	0.798457	-0.731802	-0.307285	0.353509	-0.753419	-0.321709	0.315638	-0.749855	-0.260896	0.299418	-0.750691	-0.254152	0.342777	-0.754728	-0.374402	0.145255	-0.700107	-0.247629	0.045044	-0.750121	-0.214803	0.050081	-0.687223	-0.195740	0.040101	-0.695021	
505	2.5250	-0.320106	1.422767	-0.568093	-0.275431	1.401705	-0.739479	-0.296370	1.404895	-0.398790	-0.205348	1.386771	-0.564955	-0.162004	0.994771	-0.484620	-0.152946	1.002329	-0.660534	-0.231289	1.040006	-0.442283	-0.216976	1.047714	-0.703600	-0.304755	1.027091	-0.519011	-0.299096	1.028612	-0.628786	-0.309489	1.039091	-0.576982	-0.254892	0.825038	-0.406115	-0.244711	0.766236	-0.398521	-0.180744	0.772359	-0.407231	-0.182321	0.833221	-0.415238	-0.283852	0.382105	-0.372428	-0.301922	0.343011	-0.371125	-0.246971	0.324372	-0.389752	-0.234261	0.362684	-0.393610	-0.385628	0.142480	-0.422499	-0.255773	0.049589	-0.367186	-0.224447	0.049355	-0.433583	-0.203709	0.038179	-0.425169	-0.227657	0.790933	-0.753483	-0.213837	0.730857	-0.753229	-0.152665	0.738852	-0.732724	-0.158868	0.798273	-0.731508	-0.307237	0.354059	-0.753869	-0.321813	0.316228	-0.750350	-0.261066	0.299759	-0.751267	-0.254148	0.343110	-0.755256	-0.375057	0.145533	-0.701004	-0.247838	0.045833	-0.750954	-0.215112	0.050911	-0.688034	-0.195979	0.041027	-0.695790	
506	2.5300	-0.320195	1.422532	-0.568322	-0.275190	1.401245	-0.739873	-0.296485	1.404277	-0.398792	-0.205553	1.386448	-0.565092	-0.162534	0.994694	-0.484744	-0.153140	1.002092	-0.660615	-0.231890	1.039938	-0.442448	-0.217166	1.047417	-0.703779	-0.305276	1.026920	-0.519238	-0.299463	1.028361	-0.629042	-0.309927	1.038878	-0.577259	-0.255251	0.824708	-0.406551	-0.244898	0.765936	-0.399037	-0.180931	0.772268	-0.407580	-0.182682	0.833135	-0.415486	-0.283516	0.382252	-0.372592	-0.301785	0.343236	-0.371285	-0.246921	0.324324	-0.389905	-0.234025	0.362560	-0.393769	-0.386246	0.142427	-0.422416	-0.255795	0.050383	-0.367231	-0.224535	0.050284	-0.433580	-0.203693	0.039260	-0.425173	-0.227302	0.790266	-0.753393	-0.213264	0.730241	-0.752909	-0.152199	0.738507	-0.732223	-0.158611	0.797908	-0.731222	-0.307177	0.354422	-0.754278	-0.321923	0.316661	-0.750811	-0.261254	0.299908	-0.751817	-0.254139	0.343243	-0.755751	-0.375863	0.145749	-0.701892	-0.248311	0.046322	-0.751526	-0.215736	0.051512	-0.688556	-0.196535	0.041698	-0.696236	
507	2.5350	-0.320269	1.422078	-0.568549	-0.274921	1.400496	-0.740279	-0.296573	1.403406	-0.398762	-0.205730	1.385874	-0.565229	-0.163110	0.994405	-0.484866	-0.153407	1.001669	-0.660705	-0.232546	1.039608	-0.442606	-0.217413	1.046895	-0.703952	-0.305844	1.026443	-0.519450	-0.299893	1.027812	-0.629275	-0.310419	1.038381	-0.577520	-0.255579	0.824118	-0.406980	-0.245016	0.765373	-0.399526	-0.181059	0.771954	-0.407953	-0.183019	0.832825	-0.415793	-0.283201	0.382193	-0.372765	-0.301697	0.343263	-0.371481	-0.246914	0.324053	-0.390023	-0.233801	0.362201	-0.393894	-0.386998	0.142267	-0.422257	-0.255968	0.050844	-0.367586	-0.224902	0.051011	-0.433950	-0.203950	0.040116	-0.425603	-0.226965	0.789419	-0.753296	-0.212705	0.729450	-0.752582	-0.151744	0.738005	-0.731717	-0.158379	0.797375	-0.730939	-0.307071	0.354585	-0.754662	-0.322017	0.316916	-0.751253	-0.261434	0.299845	-0.752318	-0.254096	0.343158	-0.756196	-0.376809	0.145896	-0.702747	-0.249054	0.046498	-0.751840	-0.216670	0.051859	-0.688800	-0.197411	0.042092	-0.696374	
508	2.5400	-0.320328	1.421399	-0.568775	-0.274623	1.399465	-0.740694	-0.296634	1.402294	-0.398707	-0.205893	1.385048	-0.565364	-0.163733	0.993902	-0.484974	-0.153748	1.001056	-0.660805	-0.233256	1.039005	-0.442753	-0.217716	1.046144	-0.704116	-0.306457	1.025656	-0.519649	-0.300376	1.026967	-0.629489	-0.310948	1.037584	-0.577762	-0.255870	0.823275	-0.407393	-0.245058	0.764566	-0.399978	-0.181123	0.771413	-0.408339	-0.183333	0.832295	-0.416146	-0.282898	0.381921	-0.372933	-0.301635	0.343081	-0.371698	-0.246936	0.323543	-0.390115	-0.233585	0.361613	-0.393981	-0.387868	0.141998	-0.422051	-0.256310	0.050948	-0.368239	-0.225536	0.051520	-0.434684	-0.204479	0.040735	-0.426453	-0.226646	0.788416	-0.753201	-0.212162	0.728502	-0.752261	-0.151303	0.737350	-0.731212	-0.158171	0.796694	-0.730655	-0.306891	0.354531	-0.755032	-0.322070	0.316987	-0.751689	-0.261588	0.299548	-0.752750	-0.253998	0.342834	-0.756573	-0.377892	0.145982	-0.703567	-0.250083	0.046340	-0.751911	-0.217910	0.051929	-0.688790	-0.198604	0.042181	-0.696239	
509	2.5450	-0.320371	1.420490	-0.568997	-0.274302	1.398159	-0.741115	-0.296667	1.400951	-0.398634	-0.206048	1.383967	-0.565496	-0.164396	0.993176	-0.485070	-0.154159	1.000254	-0.660909	-0.234011	1.038122	-0.442890	-0.218058	1.045172	-0.704277	-0.307105	1.024570	-0.519839	-0.300903	1.025843	-0.629691	-0.311498	1.036492	-0.577973	-0.256123	0.822173	-0.407782	-0.245031	0.763524	-0.400353	-0.181126	0.770647	-0.408720	-0.183618	0.831540	-0.416529	-0.282587	0.381417	-0.373090	-0.301573	0.342670	-0.371922	-0.246965	0.322779	-0.390203	-0.233360	0.360783	-0.394037	-0.388873	0.141599	-0.421846	-0.256835	0.050693	-0.369164	-0.226433	0.051793	-0.435742	-0.205249	0.041121	-0.427687	-0.226341	0.787270	-0.753114	-0.211640	0.727411	-0.751967	-0.150886	0.736549	-0.730729	-0.157978	0.795859	-0.730371	-0.306615	0.354246	-0.755392	-0.322063	0.316861	-0.752124	-0.261701	0.299013	-0.753096	-0.253820	0.342255	-0.756865	-0.379091	0.146002	-0.704337	-0.251405	0.045835	-0.751767	-0.219467	0.051681	-0.688551	-0.200121	0.041925	-0.695851	
510	2.5500	-0.320399	1.419354	-0.569213	-0.273961	1.396584	-0.741536	-0.296666	1.399384	-0.398547	-0.206197	1.382630	-0.565624	-0.165099	0.992217	-0.485145	-0.154629	0.999251	-0.661010	-0.234814	1.036949	-0.443013	-0.218484	1.043960	-0.704409	-0.307788	1.023176	-0.520022	-0.301467	1.024425	-0.629880	-0.312074	1.035108	-0.578175	-0.256328	0.820817	-0.408135	-0.244937	0.762238	-0.400664	-0.181068	0.769663	-0.409081	-0.183880	0.830561	-0.416914	-0.282235	0.380659	-0.373239	-0.301485	0.342012	-0.372141	-0.246980	0.321759	-0.390317	-0.233110	0.359705	-0.394090	-0.389995	0.141074	-0.421689	-0.257556	0.050091	-0.370316	-0.227570	0.051806	-0.437067	-0.206246	0.041253	-0.429231	-0.226050	0.785983	-0.753039	-0.211131	0.726174	-0.751712	-0.150481	0.735595	-0.730283	-0.157799	0.794869	-0.730096	-0.306223	0.353726	-0.755745	-0.321977	0.316532	-0.752570	-0.261755	0.298229	-0.753344	-0.253540	0.341422	-0.757059	-0.380383	0.145949	-0.705062	-0.253015	0.044977	-0.751436	-0.221316	0.051094	-0.688115	-0.201951	0.041295	-0.695250	
511	2.5550	-0.320415	1.417984	-0.569422	-0.273606	1.394745	-0.741953	-0.296665	1.397575	-0.398441	-0.206340	1.381033	-0.565747	-0.165840	0.991025	-0.485197	-0.155146	0.998037	-0.661104	-0.235665	1.035489	-0.443123	-0.218987	1.042504	-0.704522	-0.308502	1.021474	-0.520204	-0.302059	1.022717	-0.630059	-0.312665	1.033430	-0.578357	-0.256493	0.819201	-0.408436	-0.244780	0.760693	-0.400906	-0.180953	0.768436	-0.409418	-0.184108	0.829335	-0.417294	-0.281814	0.379647	-0.373379	-0.301336	0.341113	-0.372346	-0.246963	0.320477	-0.390478	-0.232814	0.358366	-0.394171	-0.391220	0.140429	-0.421632	-0.258477	0.049147	-0.371652	-0.228925	0.051523	-0.438585	-0.207476	0.041077	-0.430993	-0.225765	0.784550	-0.752984	-0.210631	0.724791	-0.751514	-0.150077	0.734483	-0.729896	-0.157624	0.793726	-0.729842	-0.305711	0.352986	-0.756122	-0.321798	0.315978	-0.753040	-0.261724	0.297192	-0.753488	-0.253147	0.340331	-0.757166	-0.381748	0.145826	-0.705760	-0.254891	0.043779	-0.750949	-0.223455	0.050132	-0.687501	-0.204089	0.040257	-0.694460	
